<svg version="1.1" id="Layer_1" xmlns="http://www.w3.org/2000/svg" xmlns:xlink="http://www.w3.org/1999/xlink" x="0px" y="0px"
	 width="100%" viewBox="0 0 488 491" enable-background="new 0 0 488 491" xml:space="preserve">
<path fill="#FFFFFF" opacity="1.000000" stroke="none" 
	d="
M0.999999,184.000000 
	C1.000000,123.055519 1.000000,62.111034 1.000000,1.000000 
	C100.020836,1.000000 199.041763,1.000000 298.441864,1.329511 
	C294.288605,6.864306 289.832947,12.138941 285.207977,17.260679 
	C275.034607,28.526787 264.718262,39.664822 254.655777,51.028225 
	C253.809448,51.983952 253.690994,54.999298 254.486526,55.777092 
	C263.422394,64.513680 272.603851,72.999069 281.988068,81.804169 
	C292.144653,70.503593 301.722778,59.846661 311.252350,49.243732 
	C333.335480,62.113564 355.269226,74.896347 377.128265,87.635582 
	C376.259247,89.502632 375.483398,90.773651 375.053589,92.152534 
	C368.835358,112.101295 362.421295,131.993515 356.544189,152.042923 
	C349.751556,175.215729 346.883484,199.052002 346.083710,223.123886 
	C345.865265,229.698837 346.365906,236.339493 347.061310,242.894302 
	C348.526398,256.704376 350.276703,270.486023 352.135406,284.248871 
	C352.271881,285.259766 354.500183,286.989777 355.282776,286.761719 
	C367.234680,283.278442 379.107697,279.524567 391.308380,275.824249 
	C391.425934,275.171967 391.234222,274.529266 391.024170,273.459961 
	C390.999664,272.200104 391.061340,271.359894 390.977081,270.534607 
	C389.662506,257.661255 388.085114,244.808136 387.119263,231.909103 
	C386.729187,226.700058 387.532745,221.378967 388.028809,216.131134 
	C388.954163,206.342468 389.088104,196.348328 391.277130,186.836853 
	C395.928009,166.628525 401.652252,146.666031 406.999359,126.619530 
	C411.553101,109.547440 416.339905,92.535797 420.704681,75.416115 
	C421.929565,70.611900 421.308441,65.971008 415.879242,63.279526 
	C411.080688,60.900677 406.514130,58.048817 401.874451,55.355335 
	C383.881073,44.909630 365.880005,34.477005 347.919952,23.974287 
	C334.915466,16.369511 321.971130,8.661811 309.000000,1.000000 
	C368.926178,1.000000 428.852386,1.000000 489.000000,1.000000 
	C489.000000,59.354042 489.000000,117.708359 488.702209,176.362381 
	C485.838135,174.800369 483.508301,171.882507 480.667511,171.246399 
	C460.478607,166.725571 440.169037,162.746674 419.941620,158.392090 
	C416.692383,157.692581 415.363281,158.596848 414.657623,161.621384 
	C412.195435,172.174835 409.492279,182.675064 407.261993,193.275757 
	C406.984222,194.595978 408.695709,197.416122 409.995026,197.795349 
	C415.019806,199.261948 420.284607,199.878311 425.397644,201.077209 
	C433.338226,202.939148 441.227905,205.018311 449.092072,207.335739 
	C449.076355,208.108780 449.107758,208.551483 449.090149,209.460815 
	C448.996155,233.941940 448.951111,257.956421 448.619873,282.104614 
	C447.558380,282.538757 446.783112,282.839172 445.673309,283.098206 
	C444.891052,283.083923 444.443329,283.111084 443.608032,283.118652 
	C440.482819,283.779266 437.745148,284.459442 434.673035,285.098206 
	C433.890930,285.083923 433.443237,285.111023 432.599274,285.120300 
	C428.037170,286.065491 423.850677,286.947479 419.709106,288.005371 
	C400.077454,293.019989 380.145538,297.122925 360.917725,303.384369 
	C339.527802,310.349854 319.094757,319.937225 300.442719,332.835632 
	C298.785217,333.981842 297.379211,335.491730 295.893372,336.914795 
	C295.930328,336.996887 295.830414,336.846771 295.472473,336.849792 
	C292.028381,339.179443 288.942230,341.506104 285.893005,343.916351 
	C285.929871,343.999969 285.831329,343.845581 285.489746,343.844543 
	C283.735931,344.884552 282.323730,345.925629 280.606995,347.112671 
	C276.009796,350.863098 271.755493,354.514557 267.410858,358.055206 
	C264.556946,360.381012 264.524384,362.361115 267.323578,364.906738 
	C273.822479,370.816895 280.181183,376.886200 286.459320,383.031372 
	C288.559082,385.086609 290.241760,387.567963 292.031342,389.752289 
	C297.195679,385.657166 301.049042,382.286774 305.215668,379.362762 
	C314.072540,373.147369 323.092407,367.164124 332.403015,361.028015 
	C339.200256,357.662384 345.639923,354.354431 352.457062,351.026367 
	C357.686768,349.025482 362.397461,346.531677 367.414368,345.147766 
	C398.335114,336.618469 429.373383,328.513031 460.263458,319.876160 
	C470.112671,317.122314 480.848389,316.367065 489.000000,309.000000 
	C489.000000,369.944611 489.000000,430.889191 489.000000,492.000000 
	C389.645844,492.000000 290.291565,492.000000 190.491821,491.650208 
	C198.303787,481.427429 206.293869,471.313568 214.902588,461.756958 
	C221.904251,453.984375 229.647339,446.879700 238.123077,438.419281 
	C227.962769,429.000671 218.116501,419.873169 208.231262,410.709564 
	C204.252701,414.168884 200.443878,416.907623 197.347641,420.297211 
	C191.666641,426.516479 186.284546,433.022888 181.032639,439.612640 
	C179.078323,442.064819 177.789612,442.351868 174.966248,440.679871 
	C155.902176,429.389954 136.745987,418.251099 117.467339,407.332214 
	C114.130211,405.442169 113.609314,403.810211 114.745125,400.294952 
	C120.681419,381.922668 126.448975,363.493835 132.069977,345.022186 
	C139.658417,320.085114 143.141434,294.467499 143.920532,268.480042 
	C144.118347,261.881561 143.643936,255.220505 142.938034,248.646240 
	C141.478638,235.054611 139.710678,221.494507 137.858932,207.950241 
	C137.736069,207.051544 135.590729,205.530106 134.805023,205.755905 
	C122.621208,209.257736 110.506706,213.000702 99.221321,216.430969 
	C100.492325,232.240372 102.176826,247.818405 102.823914,263.439392 
	C103.163132,271.628235 101.804428,279.904297 101.001450,288.120331 
	C98.826553,310.373840 93.000214,331.838165 86.884460,353.252380 
	C80.862976,374.336487 75.050972,395.481293 69.286690,416.637482 
	C67.758629,422.245819 69.552612,426.347015 74.139801,429.033234 
	C82.271530,433.795135 90.409721,438.546692 98.579880,443.242218 
	C123.527145,457.579895 148.510330,471.855255 173.420425,486.257111 
	C176.143494,487.831451 178.482727,490.069702 181.000000,492.000000 
	C121.074020,492.000000 61.148037,492.000000 1.000000,492.000000 
	C1.000000,433.979309 1.000000,375.958313 1.285715,317.521606 
	C2.033466,317.442047 2.495502,317.778259 3.104179,318.437805 
	C5.199962,319.840057 7.031074,321.443268 9.117361,321.912872 
	C22.884335,325.011719 36.685116,327.971283 50.518398,330.760376 
	C58.308231,332.330994 66.181190,333.489319 74.272644,334.864441 
	C74.630180,334.603424 74.731766,334.311371 74.905685,333.621521 
	C75.083267,332.586761 75.159973,331.943512 75.297966,331.313690 
	C77.805359,319.869293 80.320137,308.426514 82.864441,296.727417 
	C82.603485,296.369843 82.311447,296.268219 81.623123,296.085876 
	C72.211609,294.002258 63.255905,291.656555 54.166962,290.078064 
	C41.041229,287.798492 41.000004,288.035889 41.000000,274.891266 
	C41.000000,274.058350 41.000000,273.225433 41.000000,272.392517 
	C41.000000,252.089279 41.000000,231.786041 41.000000,211.262634 
	C46.478809,210.142319 51.737541,209.226700 56.916645,207.980225 
	C79.141380,202.631393 101.509186,197.778046 123.503845,191.601074 
	C143.870255,185.881363 163.256241,177.224411 181.090424,165.816818 
	C195.060226,156.881042 208.233475,146.682083 221.585434,136.807465 
	C226.614212,133.088379 226.228592,130.648880 221.006760,126.980125 
	C219.668015,126.039536 218.452087,124.901779 217.275955,123.755844 
	C211.204880,117.840721 205.165070,111.893494 198.980347,105.652222 
	C197.173660,103.264534 195.935257,103.999046 194.574722,106.092712 
	C191.308121,108.522362 188.325378,110.783081 185.400894,113.116798 
	C166.309097,128.351898 145.233459,140.177917 122.119530,147.873749 
	C104.334587,153.795288 86.128563,158.481934 68.027641,163.416412 
	C49.449150,168.481079 30.741072,173.070541 12.164451,178.141785 
	C8.906569,179.031158 6.017082,181.270020 2.686432,182.990417 
	C1.943604,183.396790 1.471801,183.698395 0.999999,184.000000 
M292.995026,108.990257 
	C292.995026,108.990257 293.052979,108.964386 292.768494,108.384743 
	C291.856689,107.902962 290.944916,107.421181 289.995026,106.990242 
	C289.995026,106.990242 290.052979,106.964394 289.767944,106.384056 
	C288.855804,105.891495 287.943695,105.398933 286.716766,104.311607 
	C280.012573,98.974716 272.983917,93.992867 266.672852,88.225746 
	C254.193802,76.822189 241.934753,65.163315 229.909988,53.280846 
	C214.798981,38.348663 200.014114,23.086451 184.782974,7.391992 
	C183.865799,6.896780 182.948624,6.401568 181.517883,5.320172 
	C179.677399,5.259617 177.836899,5.199062 175.273422,5.086667 
	C173.177078,6.062556 170.992844,6.886059 168.997498,8.037018 
	C134.944351,27.679346 100.938919,47.404556 66.844841,66.975380 
	C63.142426,69.100662 61.213028,71.830605 61.049225,76.706062 
	C61.412216,77.806252 61.775208,78.906448 62.093449,80.762741 
	C68.367691,99.870270 74.606110,118.989784 80.987885,138.061340 
	C81.470222,139.502777 82.972374,140.602982 84.747574,141.954437 
	C85.498367,141.925262 86.249161,141.896088 87.648979,141.698181 
	C89.099304,141.085297 90.549629,140.472397 92.664536,139.943237 
	C93.109512,139.917297 93.554489,139.891373 94.559921,139.774063 
	C95.039337,139.468155 95.518745,139.162247 96.663284,138.942352 
	C97.108864,138.917252 97.554443,138.892151 98.668694,138.684341 
	C106.063202,135.968491 113.457710,133.252625 121.036438,130.469116 
	C116.571800,116.634735 112.241623,103.216995 107.938126,89.881935 
	C129.900024,77.131561 151.469101,64.609238 173.664597,52.302734 
	C179.273895,58.560555 184.744934,64.949310 190.521042,71.049194 
	C202.900970,84.123016 215.438461,97.047653 228.225937,110.624413 
	C229.806030,111.780540 231.386124,112.936668 233.230515,114.636307 
	C234.124161,115.435333 235.017792,116.234352 236.225815,117.624252 
	C237.805099,118.769547 239.384384,119.914848 241.006302,121.012566 
	C241.006302,121.012566 240.946930,121.035660 241.240814,121.632584 
	C242.815094,122.775108 244.389389,123.917625 246.006363,125.012711 
	C246.006363,125.012711 245.947006,125.035652 246.247498,125.640923 
	C246.934769,126.360214 247.537628,127.191460 248.321579,127.782547 
	C273.359650,146.660889 300.319092,161.901489 330.408691,171.269089 
	C334.672302,172.596466 335.888550,170.777054 335.962036,166.344482 
	C336.006165,165.904831 336.050293,165.465164 336.629333,164.624451 
	C336.706451,163.749481 336.783569,162.874527 336.962006,161.344147 
	C337.006195,160.904251 337.050385,160.464371 337.668579,159.538788 
	C339.445801,152.691101 340.875427,145.727112 343.114746,139.034027 
	C344.783081,134.047440 342.664520,132.556335 338.517853,130.889877 
	C328.720093,126.952370 319.093170,122.572708 309.503571,118.141632 
	C304.889404,116.009560 300.515869,113.356621 295.994995,110.990227 
	C295.994995,110.990227 296.052979,110.964386 295.768494,110.384735 
	C294.856689,109.902954 293.944916,109.421173 292.995026,108.990257 
M377.696838,358.070953 
	C374.746460,359.214996 371.796082,360.359039 368.774170,361.530853 
	C372.658813,373.475739 376.180664,384.939209 380.170532,396.237427 
	C381.610748,400.315765 381.311218,402.945099 377.377472,405.183258 
	C358.307068,416.033539 339.298004,426.991943 320.292603,437.955994 
	C317.355377,439.650482 315.092834,439.121155 312.992523,436.546539 
	C310.705902,433.743652 308.349854,430.983582 305.852234,428.369019 
	C290.348785,412.140198 274.949158,395.807983 259.214630,379.805420 
	C245.957687,366.322571 230.443939,355.659790 214.339417,345.910309 
	C196.767776,335.272736 178.088318,326.950745 158.667953,320.270111 
	C155.840775,319.297577 154.632385,320.759521 154.073410,323.044739 
	C151.454315,333.752441 148.964203,344.491699 146.355057,355.201874 
	C145.709564,357.851532 145.958771,359.220825 149.133316,360.201569 
	C154.684235,361.916504 159.998245,364.436523 165.341553,366.778778 
	C192.595474,378.725647 216.194916,396.082397 237.722076,416.347748 
	C245.436493,423.609985 252.342987,431.722717 259.806641,439.260681 
	C274.690613,454.292847 289.702057,469.198822 304.667511,484.150238 
	C308.668335,488.147339 312.174286,488.770874 317.310455,486.201355 
	C320.356781,484.677399 323.298218,482.938049 326.250244,481.232239 
	C344.820160,470.501282 363.389191,459.768646 381.939850,449.004456 
	C395.991119,440.851044 410.064575,432.733734 424.024261,424.425781 
	C429.120087,421.393066 429.993744,418.259399 428.116669,412.474731 
	C421.763794,392.896851 415.300079,373.354126 409.105682,353.726379 
	C408.002106,350.229553 406.439758,349.335724 403.106445,350.397827 
	C394.928223,353.003632 386.707031,355.474579 377.696838,358.070953 
z"/>
<path fill="#0078E8" opacity="1.000000" stroke="none" 
	d="
M390.999115,275.833801 
	C379.107697,279.524567 367.234680,283.278442 355.282776,286.761719 
	C354.500183,286.989777 352.271881,285.259766 352.135406,284.248871 
	C350.276703,270.486023 348.526398,256.704376 347.061310,242.894302 
	C346.365906,236.339493 345.865265,229.698837 346.083710,223.123886 
	C346.883484,199.052002 349.751556,175.215729 356.544189,152.042923 
	C362.421295,131.993515 368.835358,112.101295 375.053589,92.152534 
	C375.483398,90.773651 376.259247,89.502632 377.128265,87.635582 
	C355.269226,74.896347 333.335480,62.113564 311.252350,49.243732 
	C301.722778,59.846661 292.144653,70.503593 281.988068,81.804169 
	C272.603851,72.999069 263.422394,64.513680 254.486526,55.777092 
	C253.690994,54.999298 253.809448,51.983952 254.655777,51.028225 
	C264.718262,39.664822 275.034607,28.526787 285.207977,17.260679 
	C289.832947,12.138941 294.288605,6.864306 298.910522,1.329511 
	C302.030609,1.000000 305.061188,1.000000 308.545898,1.000000 
	C321.971130,8.661811 334.915466,16.369511 347.919952,23.974287 
	C365.880005,34.477005 383.881073,44.909630 401.874451,55.355335 
	C406.514130,58.048817 411.080688,60.900677 415.879242,63.279526 
	C421.308441,65.971008 421.929565,70.611900 420.704681,75.416115 
	C416.339905,92.535797 411.553101,109.547440 406.999359,126.619530 
	C401.652252,146.666031 395.928009,166.628525 391.277130,186.836853 
	C389.088104,196.348328 388.954163,206.342468 388.028809,216.131134 
	C387.532745,221.378967 386.729187,226.700058 387.119263,231.909103 
	C388.085114,244.808136 389.662506,257.661255 390.977081,270.534607 
	C391.061340,271.359894 390.999664,272.200104 391.009216,273.784485 
	C391.008087,274.968323 391.003601,275.401062 390.999115,275.833801 
z"/>
<path fill="#93C9FE" opacity="1.000000" stroke="none" 
	d="
M181.449982,492.000000 
	C178.482727,490.069702 176.143494,487.831451 173.420425,486.257111 
	C148.510330,471.855255 123.527145,457.579895 98.579880,443.242218 
	C90.409721,438.546692 82.271530,433.795135 74.139801,429.033234 
	C69.552612,426.347015 67.758629,422.245819 69.286690,416.637482 
	C75.050972,395.481293 80.862976,374.336487 86.884460,353.252380 
	C93.000214,331.838165 98.826553,310.373840 101.001450,288.120331 
	C101.804428,279.904297 103.163132,271.628235 102.823914,263.439392 
	C102.176826,247.818405 100.492325,232.240372 99.221321,216.430969 
	C110.506706,213.000702 122.621208,209.257736 134.805023,205.755905 
	C135.590729,205.530106 137.736069,207.051544 137.858932,207.950241 
	C139.710678,221.494507 141.478638,235.054611 142.938034,248.646240 
	C143.643936,255.220505 144.118347,261.881561 143.920532,268.480042 
	C143.141434,294.467499 139.658417,320.085114 132.069977,345.022186 
	C126.448975,363.493835 120.681419,381.922668 114.745125,400.294952 
	C113.609314,403.810211 114.130211,405.442169 117.467339,407.332214 
	C136.745987,418.251099 155.902176,429.389954 174.966248,440.679871 
	C177.789612,442.351868 179.078323,442.064819 181.032639,439.612640 
	C186.284546,433.022888 191.666641,426.516479 197.347641,420.297211 
	C200.443878,416.907623 204.252701,414.168884 208.231262,410.709564 
	C218.116501,419.873169 227.962769,429.000671 238.123077,438.419281 
	C229.647339,446.879700 221.904251,453.984375 214.902588,461.756958 
	C206.293869,471.313568 198.303787,481.427429 190.023163,491.650208 
	C187.299988,492.000000 184.599976,492.000000 181.449982,492.000000 
z"/>
<path fill="#0078E8" opacity="1.000000" stroke="none" 
	d="
M2.957456,182.885635 
	C6.017082,181.270020 8.906569,179.031158 12.164451,178.141785 
	C30.741072,173.070541 49.449150,168.481079 68.027641,163.416412 
	C86.128563,158.481934 104.334587,153.795288 122.119530,147.873749 
	C145.233459,140.177917 166.309097,128.351898 185.400894,113.116798 
	C188.325378,110.783081 191.308121,108.522362 194.997528,106.104980 
	C196.858871,105.973885 197.986618,105.965675 199.114365,105.957466 
	C205.165070,111.893494 211.204880,117.840721 217.275955,123.755844 
	C218.452087,124.901779 219.668015,126.039536 221.006760,126.980125 
	C226.228592,130.648880 226.614212,133.088379 221.585434,136.807465 
	C208.233475,146.682083 195.060226,156.881042 181.090424,165.816818 
	C163.256241,177.224411 143.870255,185.881363 123.503845,191.601074 
	C101.509186,197.778046 79.141380,202.631393 56.916645,207.980225 
	C51.737541,209.226700 46.478809,210.142319 41.000000,211.262634 
	C41.000000,231.786041 41.000000,252.089279 41.000000,272.392517 
	C41.000000,273.225433 41.000000,274.058350 41.000000,274.891266 
	C41.000004,288.035889 41.041229,287.798492 54.166962,290.078064 
	C63.255905,291.656555 72.211609,294.002258 81.714798,296.261627 
	C82.365875,296.737000 82.576073,296.892090 82.833344,296.983368 
	C80.320137,308.426514 77.805359,319.869293 75.297966,331.313690 
	C75.159973,331.943512 75.083267,332.586761 74.729965,333.713257 
	C74.263062,334.365936 74.107994,334.576141 74.016701,334.833374 
	C66.181190,333.489319 58.308231,332.330994 50.518398,330.760376 
	C36.685116,327.971283 22.884335,325.011719 9.117361,321.912872 
	C7.031074,321.443268 5.199962,319.840057 3.111628,318.074951 
	C2.314956,316.592499 1.657478,315.796265 0.999999,315.000000 
	C1.000000,272.312439 1.000000,229.624878 1.351966,186.410919 
	C2.121772,184.884888 2.539613,183.885254 2.957456,182.885635 
z"/>
<path fill="#93C9FE" opacity="1.000000" stroke="none" 
	d="
M489.000000,308.531342 
	C480.848389,316.367065 470.112671,317.122314 460.263458,319.876160 
	C429.373383,328.513031 398.335114,336.618469 367.414368,345.147766 
	C362.397461,346.531677 357.686768,349.025482 352.146790,350.875793 
	C350.158936,350.410034 348.571136,349.423065 347.607086,349.848663 
	C342.631927,352.045319 337.742279,354.473328 333.017181,357.162140 
	C332.210327,357.621307 332.345459,359.735901 332.045441,361.085724 
	C323.092407,367.164124 314.072540,373.147369 305.215668,379.362762 
	C301.049042,382.286774 297.195679,385.657166 292.031342,389.752289 
	C290.241760,387.567963 288.559082,385.086609 286.459320,383.031372 
	C280.181183,376.886200 273.822479,370.816895 267.323578,364.906738 
	C264.524384,362.361115 264.556946,360.381012 267.410858,358.055206 
	C271.755493,354.514557 276.009796,350.863098 281.025360,347.123596 
	C283.896790,346.963989 286.470367,347.491608 285.831329,343.845581 
	C285.831329,343.845581 285.929871,343.999969 286.293396,343.971710 
	C290.492584,342.583344 294.796661,341.828705 295.830414,336.846771 
	C295.830414,336.846771 295.930328,336.996887 296.300110,336.971252 
	C297.950165,336.693542 299.383881,336.730774 300.487213,336.145355 
	C313.571869,329.202271 326.405884,321.753571 339.708740,315.263763 
	C354.867310,307.868622 370.873962,302.443542 387.150238,298.083679 
	C401.356750,294.278259 415.799255,291.358215 430.098541,287.886810 
	C431.220551,287.614441 432.037079,286.083923 432.995544,285.138123 
	C433.443237,285.111023 433.890930,285.083923 434.744659,285.441956 
	C438.695496,286.892883 442.067017,287.388763 443.995575,283.138245 
	C444.443329,283.111084 444.891052,283.083923 445.742981,283.432007 
	C447.588593,283.767395 449.029968,283.727600 450.471375,283.687805 
	C449.949585,283.115509 449.427826,282.543213 448.906067,281.970886 
	C448.951111,257.956421 448.996155,233.941940 449.370850,209.418396 
	C449.997375,208.592072 450.294189,208.274811 450.591003,207.957550 
	C450.107056,207.640152 449.623108,207.322769 449.139160,207.005371 
	C441.227905,205.018311 433.338226,202.939148 425.397644,201.077209 
	C420.284607,199.878311 415.019806,199.261948 409.995026,197.795349 
	C408.695709,197.416122 406.984222,194.595978 407.261993,193.275757 
	C409.492279,182.675064 412.195435,172.174835 414.657623,161.621384 
	C415.363281,158.596848 416.692383,157.692581 419.941620,158.392090 
	C440.169037,162.746674 460.478607,166.725571 480.667511,171.246399 
	C483.508301,171.882507 485.838135,174.800369 488.702209,176.831039 
	C489.000000,220.687561 489.000000,264.375122 489.000000,308.531342 
z"/>
<path fill="#0078E8" opacity="1.000000" stroke="none" 
	d="
M0.999999,315.333313 
	C1.657478,315.796265 2.314956,316.592499 2.964987,317.751587 
	C2.495502,317.778259 2.033466,317.442047 1.285715,317.052917 
	C1.000000,316.555542 1.000000,316.111115 0.999999,315.333313 
z"/>
<path fill="#0078E8" opacity="1.000000" stroke="none" 
	d="
M2.686430,182.990417 
	C2.539613,183.885254 2.121772,184.884888 1.351966,185.942261 
	C1.000000,185.555557 1.000000,185.111099 0.999999,184.333328 
	C1.471801,183.698395 1.943604,183.396790 2.686430,182.990417 
z"/>
<path fill="#0078E8" opacity="1.000000" stroke="none" 
	d="
M378.099976,358.035400 
	C386.707031,355.474579 394.928223,353.003632 403.106445,350.397827 
	C406.439758,349.335724 408.002106,350.229553 409.105682,353.726379 
	C415.300079,373.354126 421.763794,392.896851 428.116669,412.474731 
	C429.993744,418.259399 429.120087,421.393066 424.024261,424.425781 
	C410.064575,432.733734 395.991119,440.851044 381.939850,449.004456 
	C363.389191,459.768646 344.820160,470.501282 326.250244,481.232239 
	C323.298218,482.938049 320.356781,484.677399 317.310455,486.201355 
	C312.174286,488.770874 308.668335,488.147339 304.667511,484.150238 
	C289.702057,469.198822 274.690613,454.292847 259.806641,439.260681 
	C252.342987,431.722717 245.436493,423.609985 237.722076,416.347748 
	C216.194916,396.082397 192.595474,378.725647 165.341553,366.778778 
	C159.998245,364.436523 154.684235,361.916504 149.133316,360.201569 
	C145.958771,359.220825 145.709564,357.851532 146.355057,355.201874 
	C148.964203,344.491699 151.454315,333.752441 154.073410,323.044739 
	C154.632385,320.759521 155.840775,319.297577 158.667953,320.270111 
	C178.088318,326.950745 196.767776,335.272736 214.339417,345.910309 
	C230.443939,355.659790 245.957687,366.322571 259.214630,379.805420 
	C274.949158,395.807983 290.348785,412.140198 305.852234,428.369019 
	C308.349854,430.983582 310.705902,433.743652 312.992523,436.546539 
	C315.092834,439.121155 317.355377,439.650482 320.292603,437.955994 
	C339.298004,426.991943 358.307068,416.033539 377.377472,405.183258 
	C381.311218,402.945099 381.610748,400.315765 380.170532,396.237427 
	C376.180664,384.939209 372.658813,373.475739 368.774170,361.530853 
	C371.796082,360.359039 374.746460,359.214996 378.099976,358.035400 
z"/>
<path fill="#93C9FE" opacity="1.000000" stroke="none" 
	d="
M235.911438,117.033379 
	C235.017792,116.234352 234.124161,115.435333 233.107971,113.949402 
	C233.323364,108.997482 230.193405,110.181664 227.911438,110.033386 
	C215.438461,97.047653 202.900970,84.123016 190.521042,71.049194 
	C184.744934,64.949310 179.273895,58.560555 173.208801,51.867989 
	C171.373383,50.926228 169.676025,49.644405 168.672943,50.055717 
	C165.510727,51.352379 162.615997,53.296825 159.605011,54.967632 
	C151.431396,59.503185 143.223083,63.976997 135.081253,68.568810 
	C126.237381,73.556572 117.559258,78.850876 108.587692,83.593094 
	C105.229187,85.368340 104.304321,87.393547 105.405334,90.720520 
	C106.812737,94.973259 108.290558,99.202789 109.684143,103.459969 
	C112.257790,111.321991 114.792221,119.196846 117.407181,127.264389 
	C110.220490,129.735001 103.828827,131.932297 97.392044,134.145111 
	C97.628769,135.983658 97.814400,137.425354 98.000023,138.867035 
	C97.554443,138.892151 97.108864,138.917252 96.330177,138.528793 
	C95.490059,137.081650 94.983047,136.048065 94.476036,135.014481 
	C94.132050,135.223907 93.788063,135.433350 93.444077,135.642776 
	C93.629204,137.050339 93.814331,138.457901 93.999466,139.865448 
	C93.554489,139.891373 93.109512,139.917297 92.330399,139.518127 
	C91.465187,133.652512 88.757637,136.447052 86.400047,137.457993 
	C86.616386,139.047974 86.808174,140.457443 86.999954,141.866928 
	C86.249161,141.896088 85.498367,141.925262 84.372192,141.531006 
	C82.991272,138.545624 81.859406,136.025208 81.000809,133.414932 
	C75.612877,117.034698 70.320145,100.623032 64.882790,84.259354 
	C64.367622,82.708969 63.071663,81.418030 62.138199,80.006638 
	C61.775208,78.906448 61.412216,77.806252 61.433739,76.306786 
	C66.320251,72.505043 70.590637,68.726868 75.372757,65.778809 
	C85.138870,59.758274 95.166847,54.160969 105.112228,48.433212 
	C114.798370,42.854752 124.530014,37.355293 134.216049,31.776649 
	C144.304855,25.966028 154.595261,20.457083 164.323181,14.091377 
	C168.356094,11.452346 174.586060,11.276314 175.996414,5.138507 
	C177.836899,5.199062 179.677399,5.259617 181.814209,5.973386 
	C183.103180,7.073284 184.095840,7.519968 185.088501,7.966653 
	C200.014114,23.086451 214.798981,38.348663 229.909988,53.280846 
	C241.934753,65.163315 254.193802,76.822189 266.672852,88.225746 
	C272.983917,93.992867 280.012573,98.974716 286.912598,104.966934 
	C288.089966,106.069641 289.071472,106.517014 290.052979,106.964394 
	C290.052979,106.964394 289.995026,106.990242 290.053894,107.319519 
	C291.092834,108.087334 292.072906,108.525864 293.052979,108.964386 
	C293.052979,108.964386 292.995026,108.990257 293.053894,109.319534 
	C294.092834,110.087334 295.072906,110.525856 296.052979,110.964386 
	C296.052979,110.964386 295.994995,110.990227 296.049561,111.312820 
	C296.643555,112.222908 297.073120,113.024330 297.738678,113.366058 
	C309.283081,119.293221 320.869995,125.137657 332.414886,131.063934 
	C335.609375,132.703751 338.697815,134.550247 341.834930,136.301910 
	C341.276642,136.563553 340.718353,136.825195 340.160065,137.086823 
	C339.720642,139.160309 339.348175,141.250809 338.826538,143.303391 
	C337.990784,146.591644 335.835907,150.151031 336.536774,153.037872 
	C337.132751,155.492813 330.466095,158.578979 337.094574,160.024475 
	C337.050385,160.464371 337.006195,160.904251 336.558289,161.672974 
	C335.230133,162.430328 334.305725,162.858856 333.381317,163.287384 
	C334.285706,163.866760 335.190063,164.446136 336.094421,165.025513 
	C336.050293,165.465164 336.006165,165.904831 335.481354,166.672211 
	C331.595917,166.469513 327.901093,166.612808 324.836029,165.293304 
	C310.732025,159.221436 296.573608,153.194839 282.891327,146.252197 
	C273.396271,141.434235 264.736816,134.993164 255.505249,129.618744 
	C252.489319,127.862946 250.330093,124.009186 245.947006,125.035652 
	C245.947006,125.035652 246.006363,125.012711 245.995667,124.624832 
	C246.314636,120.008171 243.213913,121.177971 240.946930,121.035660 
	C240.946930,121.035660 241.006302,121.012566 240.995621,120.624023 
	C241.307938,115.976822 238.175018,117.193802 235.911438,117.033379 
z"/>
<path fill="#93C9FE" opacity="1.000000" stroke="none" 
	d="
M98.334358,138.775696 
	C97.814400,137.425354 97.628769,135.983658 97.392044,134.145111 
	C103.828827,131.932297 110.220490,129.735001 117.407181,127.264389 
	C114.792221,119.196846 112.257790,111.321991 109.684143,103.459969 
	C108.290558,99.202789 106.812737,94.973259 105.405334,90.720520 
	C104.304321,87.393547 105.229187,85.368340 108.587692,83.593094 
	C117.559258,78.850876 126.237381,73.556572 135.081253,68.568810 
	C143.223083,63.976997 151.431396,59.503185 159.605011,54.967632 
	C162.615997,53.296825 165.510727,51.352379 168.672943,50.055717 
	C169.676025,49.644405 171.373383,50.926228 172.895599,51.760078 
	C151.469101,64.609238 129.900024,77.131561 107.938126,89.881935 
	C112.241623,103.216995 116.571800,116.634735 121.036438,130.469116 
	C113.457710,133.252625 106.063202,135.968491 98.334358,138.775696 
z"/>
<path fill="#93C9FE" opacity="1.000000" stroke="none" 
	d="
M175.634918,5.112587 
	C174.586060,11.276314 168.356094,11.452346 164.323181,14.091377 
	C154.595261,20.457083 144.304855,25.966028 134.216049,31.776649 
	C124.530014,37.355293 114.798370,42.854752 105.112228,48.433212 
	C95.166847,54.160969 85.138870,59.758274 75.372757,65.778809 
	C70.590637,68.726868 66.320251,72.505043 61.478619,75.951660 
	C61.213028,71.830605 63.142426,69.100662 66.844841,66.975380 
	C100.938919,47.404556 134.944351,27.679346 168.997498,8.037018 
	C170.992844,6.886059 173.177078,6.062556 175.634918,5.112587 
z"/>
<path fill="#93C9FE" opacity="1.000000" stroke="none" 
	d="
M432.599243,285.120300 
	C432.037079,286.083923 431.220551,287.614441 430.098541,287.886810 
	C415.799255,291.358215 401.356750,294.278259 387.150238,298.083679 
	C370.873962,302.443542 354.867310,307.868622 339.708740,315.263763 
	C326.405884,321.753571 313.571869,329.202271 300.487213,336.145355 
	C299.383881,336.730774 297.950165,336.693542 296.263153,336.889160 
	C297.379211,335.491730 298.785217,333.981842 300.442719,332.835632 
	C319.094757,319.937225 339.527802,310.349854 360.917725,303.384369 
	C380.145538,297.122925 400.077454,293.019989 419.709106,288.005371 
	C423.850677,286.947479 428.037170,286.065491 432.599243,285.120300 
z"/>
<path fill="#93C9FE" opacity="1.000000" stroke="none" 
	d="
M246.097260,125.338287 
	C250.330093,124.009186 252.489319,127.862946 255.505249,129.618744 
	C264.736816,134.993164 273.396271,141.434235 282.891327,146.252197 
	C296.573608,153.194839 310.732025,159.221436 324.836029,165.293304 
	C327.901093,166.612808 331.595917,166.469513 335.430756,166.999756 
	C335.888550,170.777054 334.672302,172.596466 330.408691,171.269089 
	C300.319092,161.901489 273.359650,146.660889 248.321579,127.782547 
	C247.537628,127.191460 246.934769,126.360214 246.097260,125.338287 
z"/>
<path fill="#93C9FE" opacity="1.000000" stroke="none" 
	d="
M337.381592,159.781631 
	C330.466095,158.578979 337.132751,155.492813 336.536774,153.037872 
	C335.835907,150.151031 337.990784,146.591644 338.826538,143.303391 
	C339.348175,141.250809 339.720642,139.160309 340.160065,137.086823 
	C340.718353,136.825195 341.276642,136.563553 341.834930,136.301910 
	C338.697815,134.550247 335.609375,132.703751 332.414886,131.063934 
	C320.869995,125.137657 309.283081,119.293221 297.738678,113.366058 
	C297.073120,113.024330 296.643555,112.222908 296.068787,111.287491 
	C300.515869,113.356621 304.889404,116.009560 309.503571,118.141632 
	C319.093170,122.572708 328.720093,126.952370 338.517853,130.889877 
	C342.664520,132.556335 344.783081,134.047440 343.114746,139.034027 
	C340.875427,145.727112 339.445801,152.691101 337.381592,159.781631 
z"/>
<path fill="#93C9FE" opacity="1.000000" stroke="none" 
	d="
M62.115822,80.384689 
	C63.071663,81.418030 64.367622,82.708969 64.882790,84.259354 
	C70.320145,100.623032 75.612877,117.034698 81.000809,133.414932 
	C81.859406,136.025208 82.991272,138.545624 83.998634,141.484680 
	C82.972374,140.602982 81.470222,139.502777 80.987885,138.061340 
	C74.606110,118.989784 68.367691,99.870270 62.115822,80.384689 
z"/>
<path fill="#93C9FE" opacity="1.000000" stroke="none" 
	d="
M332.403015,361.028015 
	C332.345459,359.735901 332.210327,357.621307 333.017181,357.162140 
	C337.742279,354.473328 342.631927,352.045319 347.607086,349.848663 
	C348.571136,349.423065 350.158936,350.410034 351.769287,350.895935 
	C345.639923,354.354431 339.200256,357.662384 332.403015,361.028015 
z"/>
<path fill="#93C9FE" opacity="1.000000" stroke="none" 
	d="
M295.472473,336.849792 
	C294.796661,341.828705 290.492584,342.583344 286.256531,343.888092 
	C288.942230,341.506104 292.028381,339.179443 295.472473,336.849792 
z"/>
<path fill="#93C9FE" opacity="1.000000" stroke="none" 
	d="
M87.324463,141.782562 
	C86.808174,140.457443 86.616386,139.047974 86.400047,137.457993 
	C88.757637,136.447052 91.465187,133.652512 91.998108,139.476257 
	C90.549629,140.472397 89.099304,141.085297 87.324463,141.782562 
z"/>
<path fill="#93C9FE" opacity="1.000000" stroke="none" 
	d="
M443.608032,283.118652 
	C442.067017,287.388763 438.695496,286.892883 435.079102,285.483398 
	C437.745148,284.459442 440.482819,283.779266 443.608032,283.118652 
z"/>
<path fill="#93C9FE" opacity="1.000000" stroke="none" 
	d="
M241.093872,121.334122 
	C243.213913,121.177971 246.314636,120.008171 245.974335,124.648544 
	C244.389389,123.917625 242.815094,122.775108 241.093872,121.334122 
z"/>
<path fill="#93C9FE" opacity="1.000000" stroke="none" 
	d="
M236.068634,117.328812 
	C238.175018,117.193802 241.307938,115.976822 240.974304,120.647820 
	C239.384384,119.914848 237.805099,118.769547 236.068634,117.328812 
z"/>
<path fill="#93C9FE" opacity="1.000000" stroke="none" 
	d="
M228.068695,110.328896 
	C230.193405,110.181664 233.323364,108.997482 232.975815,113.677650 
	C231.386124,112.936668 229.806030,111.780540 228.068695,110.328896 
z"/>
<path fill="#93C9FE" opacity="1.000000" stroke="none" 
	d="
M285.489746,343.844543 
	C286.470367,347.491608 283.896790,346.963989 281.329895,346.977600 
	C282.323730,345.925629 283.735931,344.884552 285.489746,343.844543 
z"/>
<path fill="#93C9FE" opacity="1.000000" stroke="none" 
	d="
M448.619873,282.104614 
	C449.427826,282.543213 449.949585,283.115509 450.471375,283.687805 
	C449.029968,283.727600 447.588593,283.767395 446.077515,283.473389 
	C446.783112,282.839172 447.558380,282.538757 448.619873,282.104614 
z"/>
<path fill="#93C9FE" opacity="1.000000" stroke="none" 
	d="
M336.361877,164.824982 
	C335.190063,164.446136 334.285706,163.866760 333.381317,163.287384 
	C334.305725,162.858856 335.230133,162.430328 336.507629,162.000671 
	C336.783569,162.874527 336.706451,163.749481 336.361877,164.824982 
z"/>
<path fill="#93C9FE" opacity="1.000000" stroke="none" 
	d="
M94.279694,139.819763 
	C93.814331,138.457901 93.629204,137.050339 93.444077,135.642776 
	C93.788063,135.433350 94.132050,135.223907 94.476036,135.014481 
	C94.983047,136.048065 95.490059,137.081650 95.997620,138.485779 
	C95.518745,139.162247 95.039337,139.468155 94.279694,139.819763 
z"/>
<path fill="#0078E8" opacity="1.000000" stroke="none" 
	d="
M198.980347,105.652222 
	C197.986618,105.965675 196.858871,105.973885 195.308319,105.969833 
	C195.935257,103.999046 197.173660,103.264534 198.980347,105.652222 
z"/>
<path fill="#93C9FE" opacity="1.000000" stroke="none" 
	d="
M292.910736,108.674561 
	C292.072906,108.525864 291.092834,108.087334 290.072937,107.294098 
	C290.944916,107.421181 291.856689,107.902962 292.910736,108.674561 
z"/>
<path fill="#93C9FE" opacity="1.000000" stroke="none" 
	d="
M184.935730,7.679321 
	C184.095840,7.519968 183.103180,7.073284 182.070984,6.266479 
	C182.948624,6.401568 183.865799,6.896780 184.935730,7.679321 
z"/>
<path fill="#93C9FE" opacity="1.000000" stroke="none" 
	d="
M289.910461,106.674225 
	C289.071472,106.517014 288.089966,106.069641 287.070007,105.264320 
	C287.943695,105.398933 288.855804,105.891495 289.910461,106.674225 
z"/>
<path fill="#93C9FE" opacity="1.000000" stroke="none" 
	d="
M295.910736,110.674561 
	C295.072906,110.525856 294.092834,110.087334 293.072937,109.294098 
	C293.944916,109.421173 294.856689,109.902954 295.910736,110.674561 
z"/>
<path fill="#93C9FE" opacity="1.000000" stroke="none" 
	d="
M449.092072,207.335724 
	C449.623108,207.322769 450.107056,207.640152 450.591003,207.957550 
	C450.294189,208.274811 449.997375,208.592072 449.419861,208.951752 
	C449.107758,208.551483 449.076355,208.108780 449.092072,207.335724 
z"/>
<path fill="#0078E8" opacity="1.000000" stroke="none" 
	d="
M391.308380,275.824249 
	C391.003601,275.401062 391.008087,274.968323 391.027527,274.211060 
	C391.234222,274.529266 391.425934,275.171967 391.308380,275.824249 
z"/>
<path fill="#0078E8" opacity="1.000000" stroke="none" 
	d="
M82.864441,296.727417 
	C82.576073,296.892090 82.365875,296.737000 82.111084,296.342346 
	C82.311447,296.268219 82.603485,296.369843 82.864441,296.727417 
z"/>
<path fill="#0078E8" opacity="1.000000" stroke="none" 
	d="
M74.272644,334.864441 
	C74.107994,334.576141 74.263062,334.365936 74.657623,334.111023 
	C74.731766,334.311371 74.630180,334.603424 74.272644,334.864441 
z"/>
</svg>